<svg width="156" height="156" viewBox="0 0 156 156" fill="none" xmlns="http://www.w3.org/2000/svg">
<path d="M59.8359 1.0205C38.7293 2.50996 25.8692 6.90566 16.5692 15.7697C7.1965 24.7064 2.5465 38.1115 0.984387 60.5623C0.512122 67.3557 0.512122 88.6439 0.984387 95.4373C2.5465 117.743 6.9422 130.53 16.2059 139.794C25.5059 149.094 38.475 153.526 60.7441 155.015C67.7555 155.488 88.2082 155.488 95.2559 155.015C117.707 153.526 131.257 148.803 140.23 139.431C149.276 129.949 153.562 117.162 155.016 95.2557C155.488 88.2443 155.488 67.7553 155.016 60.7439C153.562 38.8381 149.276 26.0506 140.23 16.5689C131.293 7.19629 117.888 2.54629 95.4375 0.984177C89.3344 0.584567 65.9754 0.584567 59.8359 1.0205Z" fill="#C7FF27"/>
<path d="M61 78.0417L72.0417 89.0833L94.125 67" stroke="black" stroke-width="8" stroke-linecap="round" stroke-linejoin="round"/>
</svg>
